<mxfile host="Electron" agent="Mozilla/5.0 (Windows NT 10.0; Win64; x64) AppleWebKit/537.36 (KHTML, like Gecko) draw.io/27.0.9 Chrome/134.0.6998.205 Electron/35.4.0 Safari/537.36" version="27.0.9">
  <diagram name="PÃ¡gina-1" id="0Z-zDCvG4CLAj5gRKfea">
    <mxGraphModel dx="1280" dy="1630" grid="1" gridSize="10" guides="1" tooltips="1" connect="1" arrows="1" fold="1" page="1" pageScale="1" pageWidth="827" pageHeight="1169" math="0" shadow="0">
      <root>
        <mxCell id="0" />
        <mxCell id="1" parent="0" />
        <mxCell id="G4OuUrJ18U9g1egjvOMO-2" value="Usuario" style="shape=umlActor;verticalLabelPosition=bottom;verticalAlign=top;html=1;" vertex="1" parent="1">
          <mxGeometry x="130" y="500" width="60" height="130" as="geometry" />
        </mxCell>
        <mxCell id="G4OuUrJ18U9g1egjvOMO-4" value="" style="endArrow=classic;html=1;rounded=0;exitX=0.5;exitY=0.5;exitDx=0;exitDy=0;exitPerimeter=0;" edge="1" parent="1" source="G4OuUrJ18U9g1egjvOMO-2" target="G4OuUrJ18U9g1egjvOMO-7">
          <mxGeometry width="50" height="50" relative="1" as="geometry">
            <mxPoint x="310" y="510" as="sourcePoint" />
            <mxPoint x="430" y="490" as="targetPoint" />
          </mxGeometry>
        </mxCell>
        <mxCell id="G4OuUrJ18U9g1egjvOMO-5" value="Consultar valores actuales" style="ellipse;whiteSpace=wrap;html=1;" vertex="1" parent="1">
          <mxGeometry x="387" y="340" width="120" height="80" as="geometry" />
        </mxCell>
        <mxCell id="G4OuUrJ18U9g1egjvOMO-7" value="Ajustar temperatura" style="ellipse;whiteSpace=wrap;html=1;" vertex="1" parent="1">
          <mxGeometry x="450" y="440" width="120" height="80" as="geometry" />
        </mxCell>
        <mxCell id="G4OuUrJ18U9g1egjvOMO-8" value="Visualizar historial de registros" style="ellipse;whiteSpace=wrap;html=1;" vertex="1" parent="1">
          <mxGeometry x="460" y="640" width="120" height="80" as="geometry" />
        </mxCell>
        <mxCell id="G4OuUrJ18U9g1egjvOMO-11" value="" style="endArrow=classic;html=1;rounded=0;exitX=0.5;exitY=0.5;exitDx=0;exitDy=0;exitPerimeter=0;" edge="1" parent="1" target="G4OuUrJ18U9g1egjvOMO-5" source="G4OuUrJ18U9g1egjvOMO-2">
          <mxGeometry width="50" height="50" relative="1" as="geometry">
            <mxPoint x="320" y="490" as="sourcePoint" />
            <mxPoint x="420" y="430" as="targetPoint" />
          </mxGeometry>
        </mxCell>
        <mxCell id="G4OuUrJ18U9g1egjvOMO-15" value="" style="endArrow=classic;html=1;rounded=0;exitX=0.5;exitY=0.5;exitDx=0;exitDy=0;exitPerimeter=0;" edge="1" parent="1" source="G4OuUrJ18U9g1egjvOMO-2" target="G4OuUrJ18U9g1egjvOMO-8">
          <mxGeometry width="50" height="50" relative="1" as="geometry">
            <mxPoint x="297" y="585" as="sourcePoint" />
            <mxPoint x="417" y="565" as="targetPoint" />
          </mxGeometry>
        </mxCell>
        <mxCell id="G4OuUrJ18U9g1egjvOMO-18" value="Ajustar humedad" style="ellipse;whiteSpace=wrap;html=1;" vertex="1" parent="1">
          <mxGeometry x="460" y="530" width="120" height="80" as="geometry" />
        </mxCell>
        <mxCell id="G4OuUrJ18U9g1egjvOMO-19" value="" style="endArrow=classic;html=1;rounded=0;exitX=0.5;exitY=0.5;exitDx=0;exitDy=0;exitPerimeter=0;" edge="1" parent="1" source="G4OuUrJ18U9g1egjvOMO-2" target="G4OuUrJ18U9g1egjvOMO-18">
          <mxGeometry width="50" height="50" relative="1" as="geometry">
            <mxPoint x="390" y="510" as="sourcePoint" />
            <mxPoint x="510" y="490" as="targetPoint" />
          </mxGeometry>
        </mxCell>
        <mxCell id="G4OuUrJ18U9g1egjvOMO-20" value="Recibir alertas por condiciones criticas" style="ellipse;whiteSpace=wrap;html=1;" vertex="1" parent="1">
          <mxGeometry x="420" y="750" width="120" height="80" as="geometry" />
        </mxCell>
        <mxCell id="G4OuUrJ18U9g1egjvOMO-21" value="" style="endArrow=classic;html=1;rounded=0;exitX=0.5;exitY=0.5;exitDx=0;exitDy=0;exitPerimeter=0;" edge="1" parent="1" source="G4OuUrJ18U9g1egjvOMO-2" target="G4OuUrJ18U9g1egjvOMO-20">
          <mxGeometry width="50" height="50" relative="1" as="geometry">
            <mxPoint x="350" y="610" as="sourcePoint" />
            <mxPoint x="465" y="832" as="targetPoint" />
          </mxGeometry>
        </mxCell>
      </root>
    </mxGraphModel>
  </diagram>
</mxfile>
